<?xml version="1.0" encoding="iso-8859-1"?>
<!-- Generator: Adobe Illustrator 22.0.1, SVG Export Plug-In . SVG Version: 6.00 Build 0)  -->
<svg version="1.1" id="Layer_1" xmlns="http://www.w3.org/2000/svg" xmlns:xlink="http://www.w3.org/1999/xlink" x="0px" y="0px"
	 viewBox="0 0 814.938 245.012" style="enable-background:new 0 0 814.938 245.012;" xml:space="preserve">
<g id="Layer_1_1_" style="display:none;">
</g>
<rect x="189.272" y="130.773" style="fill:none;" width="166.4" height="93.977"/>
<g style="enable-background:new    ;">
	<path style="fill:#141D39;" d="M228.37,224.253h-10.21v-78.736h-27.807v-9.069h65.824v9.069H228.37V224.253z"/>
	<path style="fill:#141D39;" d="M269.39,224.253v-87.806h10.21v87.806H269.39z"/>
	<path style="fill:#141D39;" d="M303.684,224.253v-87.806h10.21v78.557h38.738v9.249H303.684z"/>
</g>
<rect x="441.005" y="130.773" style="fill:none;" width="365.5" height="93.977"/>
<g style="enable-background:new    ;">
	<path style="fill:#141D39;" d="M490.674,144.315c-9.65,0-17.268,3.213-22.853,9.639c-5.586,6.427-8.378,15.225-8.378,26.396
		c0,11.491,2.691,20.37,8.077,26.636c5.385,6.267,13.063,9.399,23.032,9.399c6.127,0,13.113-1.102,20.961-3.304v8.948
		c-6.086,2.283-13.594,3.424-22.521,3.424c-12.934,0-22.913-3.924-29.939-11.771c-7.027-7.847-10.541-18.998-10.541-33.453
		c0-9.048,1.691-16.976,5.075-23.783c3.384-6.806,8.268-12.051,14.654-15.734c6.386-3.684,13.903-5.525,22.552-5.525
		c9.209,0,17.257,1.682,24.145,5.045l-4.324,8.768C503.966,145.876,497.319,144.315,490.674,144.315z"/>
	<path style="fill:#141D39;" d="M579.62,224.253h-48.948v-87.806h48.948v9.069h-38.737v28.287h36.395v9.009h-36.395v32.312h38.737
		V224.253z"/>
	<path style="fill:#141D39;" d="M626.105,224.253h-10.21v-78.736h-27.808v-9.069h65.824v9.069h-27.807V224.253z"/>
	<path style="fill:#141D39;" d="M722.319,224.253l-10.931-27.928h-35.194l-10.811,27.928h-10.33l34.714-88.166h8.588l34.534,88.166
		H722.319z M708.205,187.137l-10.209-27.206c-1.322-3.443-2.684-7.667-4.084-12.673c-0.882,3.844-2.143,8.068-3.784,12.673
		l-10.33,27.206H708.205z"/>
	<path style="fill:#141D39;" d="M795.11,136.447h10.991l-31.651,87.806h-10.09l-31.471-87.806H743.7l20.18,56.815
		c2.321,6.526,4.163,12.873,5.525,19.039c1.441-6.486,3.323-12.952,5.646-19.399L795.11,136.447z"/>
</g>
<polyline style="fill:none;stroke:#141D39;stroke-width:6;stroke-miterlimit:10;" points="205.943,10.103 10.297,10.103 
	10.297,61.891 79.791,61.891 79.791,237.176 108.12,237.176 108.12,64.105 "/>
<polyline style="fill:none;stroke:#141D39;stroke-width:6;stroke-miterlimit:10;" points="51.905,35.776 207.714,35.776 
	207.714,64.99 129.809,64.99 129.809,221.684 "/>
<circle style="fill:none;stroke:#FDC02F;stroke-width:6;stroke-miterlimit:10;" cx="45.652" cy="35.776" r="5.81"/>
<circle style="fill:none;stroke:#FDC02F;stroke-width:6;stroke-miterlimit:10;" cx="130.849" cy="228.514" r="6.1"/>
<line style="fill:none;stroke:#141D39;stroke-width:5;stroke-miterlimit:10;" x1="402.338" y1="129.51" x2="402.338" y2="234.51"/>
</svg>
